<?xml version="1.0" standalone="no"?>
<!DOCTYPE svg PUBLIC "-//W3C//DTD SVG 20010904//EN"
 "http://www.w3.org/TR/2001/REC-SVG-20010904/DTD/svg10.dtd">
<svg version="1.0" xmlns="http://www.w3.org/2000/svg"
 width="1601.000000pt" height="1601.000000pt" viewBox="0 0 1601.000000 1601.000000"
 preserveAspectRatio="xMidYMid meet">
<metadata>
Created by potrace 1.11, written by Peter Selinger 2001-2013
</metadata>
<g transform="translate(0.000000,1601.000000) scale(0.100000,-0.100000)"
fill="#000000" stroke="none">
<path d="M7984 15999 c-27 -11 -318 -113 -324 -115 -3 0 -12 -3 -20 -7 -8 -3
-181 -65 -385 -137 -203 -72 -438 -156 -521 -186 -83 -30 -154 -54 -158 -54
-5 0 -22 -6 -39 -14 -18 -8 -104 -39 -192 -70 -88 -31 -182 -65 -210 -75 -53
-20 -292 -105 -815 -290 -80 -28 -152 -54 -160 -58 -8 -3 -17 -7 -20 -7 -3 -1
-25 -9 -50 -18 -25 -9 -180 -65 -345 -123 -336 -119 -424 -150 -475 -170 -19
-7 -156 -56 -305 -109 -148 -52 -315 -111 -370 -131 -55 -20 -118 -42 -140
-50 -22 -7 -92 -32 -155 -55 -63 -23 -151 -54 -195 -70 -155 -54 -541 -191
-579 -206 -22 -8 -67 -24 -100 -36 -34 -11 -74 -26 -91 -33 -16 -7 -59 -22
-95 -34 -36 -12 -128 -45 -205 -72 -77 -28 -178 -64 -225 -81 -47 -16 -107
-38 -135 -48 -27 -10 -104 -37 -170 -60 -66 -23 -129 -46 -140 -50 -17 -7
-181 -66 -615 -220 -109 -39 -126 -45 -173 -62 -26 -10 -27 -14 -22 -52 10
-69 14 -97 25 -201 16 -142 20 -175 24 -215 7 -51 16 -128 21 -185 3 -27 8
-66 10 -85 5 -35 10 -85 20 -170 6 -58 25 -216 30 -255 2 -16 6 -55 10 -85 3
-30 7 -73 10 -95 2 -22 7 -62 10 -90 3 -27 8 -63 10 -80 2 -16 9 -73 15 -125
6 -52 12 -108 14 -125 2 -16 7 -59 11 -95 3 -36 8 -81 10 -100 5 -38 23 -189
31 -260 3 -25 9 -79 15 -120 5 -41 11 -95 14 -120 6 -60 14 -136 20 -185 7
-63 15 -126 21 -180 3 -27 7 -57 9 -65 2 -8 7 -53 10 -100 4 -47 8 -87 10 -90
2 -3 6 -36 10 -75 6 -70 8 -89 20 -175 3 -25 7 -67 10 -95 4 -45 10 -98 20
-165 3 -24 9 -79 20 -185 3 -27 8 -66 11 -86 2 -20 6 -54 9 -75 2 -21 6 -61
10 -89 3 -27 8 -69 10 -92 3 -24 7 -62 10 -85 2 -24 7 -65 10 -93 3 -27 10
-84 15 -125 6 -41 12 -97 15 -125 6 -66 16 -154 20 -185 4 -22 8 -61 20 -170
5 -47 16 -145 31 -270 8 -69 17 -145 20 -170 2 -25 7 -58 9 -75 2 -16 7 -61
11 -100 3 -38 8 -78 10 -89 2 -10 6 -44 9 -75 3 -31 8 -69 10 -86 2 -16 7 -57
10 -90 4 -33 8 -71 10 -85 2 -14 7 -52 10 -85 4 -33 8 -71 10 -85 2 -14 7 -56
11 -95 3 -38 8 -78 10 -88 2 -10 8 -64 14 -120 6 -56 13 -118 15 -137 3 -19 7
-57 10 -85 3 -27 8 -61 10 -75 2 -14 7 -54 10 -90 4 -36 8 -78 10 -95 2 -16 7
-59 11 -95 3 -36 8 -74 10 -85 2 -10 6 -49 9 -85 4 -36 8 -72 10 -80 3 -8 7
-42 10 -75 5 -56 15 -148 30 -270 4 -27 8 -63 10 -80 4 -43 15 -145 20 -180 2
-16 7 -57 10 -90 3 -33 8 -71 10 -85 4 -22 7 -51 20 -170 1 -14 5 -49 9 -77 3
-29 9 -77 12 -105 3 -29 7 -66 9 -83 2 -16 13 -113 25 -215 20 -175 23 -208
35 -297 2 -21 7 -63 10 -93 3 -30 8 -66 10 -80 2 -14 6 -52 9 -85 4 -33 8 -76
11 -95 3 -19 7 -57 10 -85 3 -27 7 -68 10 -90 5 -41 13 -112 20 -175 2 -19 7
-60 10 -90 3 -30 8 -66 11 -80 4 -21 72 -62 437 -263 238 -131 443 -244 457
-252 31 -18 431 -239 525 -290 39 -21 75 -41 80 -45 6 -4 46 -27 90 -50 75
-41 96 -52 178 -98 17 -10 57 -32 87 -49 107 -59 345 -191 380 -210 32 -18
482 -267 575 -318 22 -12 65 -36 95 -53 30 -16 80 -44 110 -61 30 -18 69 -39
85 -47 17 -8 44 -23 61 -33 17 -11 60 -35 95 -54 35 -19 84 -46 109 -60 25
-13 169 -93 320 -177 151 -84 295 -164 320 -178 25 -14 68 -37 95 -52 45 -24
610 -338 725 -402 25 -14 110 -61 190 -105 80 -44 161 -89 181 -100 19 -11
145 -81 280 -156 134 -74 303 -167 374 -207 72 -40 164 -91 205 -113 41 -23
116 -64 167 -93 l91 -52 40 23 c21 12 79 44 127 70 48 26 111 61 139 77 28 17
60 34 71 39 11 5 27 13 35 19 13 9 707 394 877 486 59 32 156 86 358 199 28
15 156 86 285 158 129 71 314 173 410 227 96 53 202 112 235 130 83 45 197
109 215 121 8 5 24 13 35 18 11 5 49 26 85 46 36 21 88 50 115 65 98 54 130
72 143 82 6 6 12 7 12 3 0 -5 8 -2 18 6 9 8 26 19 37 25 11 6 52 28 90 49 39
21 106 58 150 83 44 25 105 59 135 75 30 17 105 58 165 92 61 34 142 79 180
100 39 21 129 71 202 111 72 41 134 74 138 74 4 0 19 8 33 19 15 10 52 32 82
48 226 124 414 228 525 290 44 25 114 63 155 86 41 22 80 43 85 47 6 4 42 24
80 45 39 21 104 57 145 80 41 23 104 58 140 77 83 46 479 265 634 352 65 36
122 66 126 66 9 0 15 36 25 130 6 59 13 114 20 170 2 19 7 60 10 90 3 30 8 71
10 90 3 19 7 55 10 80 3 25 7 61 10 80 2 19 7 62 10 95 4 33 8 73 10 90 2 16
6 50 9 75 3 25 8 68 11 95 3 28 7 64 9 80 2 17 7 59 10 95 4 36 9 76 11 90 3
14 7 50 10 80 7 68 14 124 20 170 2 19 7 60 10 90 7 65 15 135 20 170 2 14 7
54 10 90 3 36 8 76 10 90 2 14 7 54 11 90 3 36 7 72 9 80 2 8 6 49 10 90 4 41
9 83 11 93 2 10 6 46 9 80 8 79 15 135 20 167 2 14 7 54 10 90 3 36 8 76 10
90 2 14 7 53 10 87 3 34 7 70 9 80 2 10 7 47 10 83 4 36 9 81 11 100 3 19 7
58 10 85 3 28 7 66 10 85 2 19 7 60 10 90 4 30 8 66 10 80 2 14 6 52 10 86 3
33 7 71 9 85 3 13 7 49 10 79 14 126 17 156 21 180 2 14 6 54 10 90 4 36 8 76
10 90 2 14 7 56 10 95 4 38 8 77 10 86 2 9 6 39 9 67 3 29 9 76 12 105 4 28 8
63 9 77 8 75 17 158 20 180 2 14 6 50 10 80 3 30 8 66 10 80 3 14 7 54 10 90
3 36 7 74 9 85 2 11 7 51 11 88 3 37 8 76 10 86 2 9 6 51 10 92 3 41 8 81 10
89 2 8 7 49 10 90 4 41 8 82 10 90 1 8 6 44 10 80 3 36 8 76 10 90 2 14 9 70
15 125 6 55 13 114 15 130 2 17 7 57 10 90 4 33 8 71 10 85 2 14 7 57 11 95 3
39 8 77 9 85 3 17 12 91 20 165 3 28 7 66 10 85 2 19 7 60 10 90 3 30 7 64 9
75 2 11 7 58 11 105 4 47 8 87 10 90 2 3 6 34 10 70 3 36 8 76 10 90 2 14 7
54 10 90 4 36 9 72 10 80 2 8 6 49 10 90 4 41 8 82 10 90 1 8 6 47 9 85 4 39
9 81 11 95 3 14 7 50 10 80 3 30 8 69 10 85 2 17 9 75 15 130 6 55 13 114 15
130 2 17 7 57 10 90 3 33 8 74 10 90 2 17 6 51 9 78 4 26 8 68 12 95 3 26 7
61 9 77 2 17 7 57 10 90 7 71 24 220 30 255 2 14 6 54 10 90 4 36 8 76 10 90
2 14 7 54 10 90 3 36 8 76 10 90 2 14 7 54 10 90 4 36 9 73 11 82 1 10 6 50 9
90 3 39 8 74 9 77 2 3 7 42 11 85 4 43 8 86 10 95 1 9 6 48 10 86 4 39 9 77
11 86 5 17 -18 27 -296 124 -58 20 -121 43 -140 50 -53 20 -147 54 -475 170
-165 58 -309 110 -320 114 -11 5 -47 18 -80 29 -33 11 -143 50 -245 87 -102
36 -243 86 -315 112 -71 25 -139 49 -150 54 -11 4 -123 45 -250 89 -336 119
-505 180 -550 197 -22 8 -58 21 -80 28 -22 7 -103 36 -180 63 -281 101 -433
155 -565 202 -74 26 -191 68 -260 93 -140 50 -360 129 -615 219 -93 33 -179
63 -190 68 -11 4 -67 25 -125 45 -58 20 -116 41 -130 47 -14 5 -50 18 -80 28
-30 10 -73 25 -95 33 -22 9 -87 32 -145 52 -58 20 -121 43 -140 50 -19 8 -73
27 -120 43 -137 48 -257 91 -385 137 -66 24 -192 69 -280 100 -88 31 -169 60
-180 65 -20 8 -205 74 -215 76 -3 0 -12 4 -20 7 -8 3 -132 47 -275 98 -143 50
-269 95 -280 100 -89 39 -265 94 -281 88z"/>
</g>
</svg>
